<?xml version="1.0" standalone="no"?>
<!DOCTYPE svg PUBLIC "-//W3C//DTD SVG 20010904//EN"
 "http://www.w3.org/TR/2001/REC-SVG-20010904/DTD/svg10.dtd">
<svg style="filter: invert()" version="1.0" xmlns="http://www.w3.org/2000/svg"
 width="202.000000pt" height="250.000000pt" viewBox="0 0 202.000000 250.000000"
 preserveAspectRatio="xMidYMid meet">

<g transform="translate(0.000000,250.000000) scale(0.100000,-0.100000)"
fill="#000000" stroke="none">
<path d="M720 2269 c0 -115 2 -130 16 -125 9 3 18 6 20 6 2 0 4 47 4 105 l0
105 240 0 239 0 3 -107 c2 -74 7 -108 16 -111 9 -3 12 27 12 127 l0 131 -275
0 -275 0 0 -131z"/>
<path d="M890 2075 c-187 -52 -325 -181 -387 -364 -32 -93 -32 -239 0 -332 82
-241 301 -392 547 -376 293 19 510 250 510 542 0 233 -139 432 -356 512 -88
32 -233 40 -314 18z m263 -147 c116 -35 160 -176 86 -279 -38 -53 -98 -72
-246 -77 -90 -3 -133 -1 -133 6 0 6 9 14 20 17 17 5 20 15 20 71 0 63 -1 65
-22 59 -87 -26 -130 -115 -108 -221 10 -47 47 -105 67 -104 4 1 20 18 35 40
44 63 94 83 220 88 146 6 158 2 158 -48 0 -34 -3 -40 -21 -40 -12 0 -30 11
-41 25 -45 58 -158 53 -215 -9 -28 -31 -45 -76 -28 -76 21 0 75 32 85 49 6 13
21 21 36 21 23 0 25 -3 22 -42 -2 -34 -7 -43 -23 -45 -140 -14 -135 -12 -135
-46 1 -43 33 -112 62 -131 23 -15 66 -21 127 -18 24 2 42 12 66 37 41 45 65
39 65 -15 0 -34 -3 -38 -31 -44 -52 -10 -232 -5 -264 7 -73 28 -115 86 -115
158 0 46 -1 47 -35 53 -43 8 -103 59 -121 103 -20 48 -17 127 6 173 31 60 87
96 183 115 27 5 27 7 27 79 0 65 -3 75 -22 89 -21 15 -14 16 106 16 73 1 146
-4 169 -11z"/>
<path d="M977 1913 c-4 -3 -7 -39 -7 -79 l0 -73 60 -7 60 -7 0 -43 c0 -38 -3
-44 -21 -44 -11 0 -32 14 -46 30 -39 47 -53 40 -53 -30 l0 -60 48 0 c102 0
151 32 172 111 25 94 -23 179 -111 198 -57 13 -93 14 -102 4z"/>
<path d="M130 1650 l0 -200 110 0 c103 0 110 1 110 20 0 19 -7 20 -90 20 l-90
0 0 160 0 159 137 3 c122 3 138 5 141 21 3 16 -10 17 -157 17 l-161 0 0 -200z"/>
<path d="M1574 1834 c3 -9 6 -18 6 -20 0 -2 61 -4 135 -4 l135 0 0 -160 0
-160 -90 0 c-83 0 -90 -1 -90 -20 0 -19 7 -20 110 -20 l110 0 0 200 0 200
-161 0 c-143 0 -160 -2 -155 -16z"/>
<path d="M722 553 l3 -398 273 -3 272 -2 0 400 c0 351 -2 399 -15 394 -13 -5
-15 -57 -15 -380 l0 -374 -240 0 -240 0 0 374 c0 332 -2 375 -16 380 -9 3 -18
6 -20 6 -2 0 -3 -179 -2 -397z"/>
</g>
</svg>
